<svg xmlns="http://www.w3.org/2000/svg">
  <symbol id="favorite" viewBox="0 0 24 24">
    <path fill-rule="evenodd" clip-rule="evenodd" d="M12 21.35L10.55 20.03C5.4 15.36 2 12.28 2 8.5C2 5.42 4.42 3 7.5 3C9.24 3 10.91 3.81 12 5.09C13.09 3.81 14.76 3 16.5 3C19.58 3 22 5.42 22 8.5C22 12.28 18.6 15.36 13.45 20.04L12 21.35Z" fill="#EE3F44"/>
  </symbol>

  <symbol id="alarm_on" viewBox="0 0 24 24">
    <path d="M22 5.71998L17.4 1.85999L16.11 3.38999L20.71 7.24998L22 5.71998ZM7.88 3.38999L6.6 1.85999L2 5.70998L3.29 7.23998L7.88 3.38999ZM12 3.99998C7.03 3.99998 3 8.02998 3 13C3 17.97 7.02 22 12 22C16.97 22 21 17.97 21 13C21 8.02998 16.97 3.99998 12 3.99998ZM12 20C8.13 20 5 16.87 5 13C5 9.12998 8.13 5.99998 12 5.99998C15.87 5.99998 19 9.12998 19 13C19 16.87 15.87 20 12 20ZM10.54 14.53L8.41 12.4L7.35 13.46L10.53 16.64L16.53 10.64L15.47 9.57998L10.54 14.53Z" fill="black" fill-opacity="0.87"/>
  </symbol>

  <symbol id="checked" viewBox="0 0 20 20">
    <path fill-rule="evenodd" clip-rule="evenodd" d="M7.50001 13.5L4.00001 10L2.83334 11.1667L7.50001 15.8334L17.5 5.83335L16.3333 4.66669L7.50001 13.5Z" fill="#23B04A"/>
  </symbol>
</svg>
