<svg xmlns="http://www.w3.org/2000/svg">
  <symbol id="qr_scanner" viewBox="0 0 24 24">
    <path id="Vector" d="M9.5 6.5V9.5H6.5V6.5H9.5ZM11 5H5V11H11V5ZM9.5 14.5V17.5H6.5V14.5H9.5ZM11 13H5V19H11V13ZM17.5 6.5V9.5H14.5V6.5H17.5ZM19 5H13V11H19V5ZM13 13H14.5V14.5H13V13ZM14.5 14.5H16V16H14.5V14.5ZM16 13H17.5V14.5H16V13ZM13 16H14.5V17.5H13V16ZM14.5 17.5H16V19H14.5V17.5ZM16 16H17.5V17.5H16V16ZM17.5 14.5H19V16H17.5V14.5ZM17.5 17.5H19V19H17.5V17.5ZM22 7H20V4H17V2H22V7ZM22 22V17H20V20H17V22H22ZM2 22H7V20H4V17H2V22ZM2 2V7H4V4H7V2H2Z" fill="black" fill-opacity="0.6"/>
  </symbol>

  <symbol id="favorite" viewBox="0 0 20 20">
    <path fill-rule="evenodd" clip-rule="evenodd" d="M10.5 17.7917L9.29166 16.6917C4.99999 12.8 2.16666 10.2333 2.16666 7.08333C2.16666 4.51667 4.18332 2.5 6.74999 2.5C8.19999 2.5 9.59166 3.175 10.5 4.24167C11.4083 3.175 12.8 2.5 14.25 2.5C16.8167 2.5 18.8333 4.51667 18.8333 7.08333C18.8333 10.2333 16 12.8 11.7083 16.7L10.5 17.7917Z" fill="#818181"/>
  </symbol>

  <symbol id="notification_active" viewBox="0 0 24 24">
    <path id="Vector" d="M8.08 4.08L6.65 2.65C4.25 4.48 2.67 7.3 2.53 10.5H4.53C4.68 7.85 6.04 5.53 8.08 4.08ZM20.47 10.5H22.47C22.32 7.3 20.74 4.48 18.35 2.65L16.93 4.08C18.95 5.53 20.32 7.85 20.47 10.5ZM18.5 11C18.5 7.93 16.86 5.36 14 4.68V4C14 3.17 13.33 2.5 12.5 2.5C11.67 2.5 11 3.17 11 4V4.68C8.13 5.36 6.5 7.92 6.5 11V16L4.5 18V19H20.5V18L18.5 16V11ZM12.5 22C12.64 22 12.77 21.99 12.9 21.96C13.55 21.82 14.08 21.38 14.34 20.78C14.44 20.54 14.49 20.28 14.49 20H10.49C10.5 21.1 11.39 22 12.5 22Z" fill="black" fill-opacity="0.6"/>
  </symbol>

  <symbol id="notification_none" viewBox="0 0 24 24">
    <path fill-rule="evenodd" clip-rule="evenodd" d="M12.5 22C13.6 22 14.5 21.1 14.5 20H10.5C10.5 21.1 11.4 22 12.5 22ZM18.5 16V11C18.5 7.93 16.87 5.36 14 4.68V4C14 3.17 13.33 2.5 12.5 2.5C11.67 2.5 11 3.17 11 4V4.68C8.14 5.36 6.5 7.92 6.5 11V16L4.5 18V19H20.5V18L18.5 16ZM16.5 17H8.5V11C8.5 8.52 10.01 6.5 12.5 6.5C14.99 6.5 16.5 8.52 16.5 11V17Z" fill="black" fill-opacity="0.6"/>
  </symbol>

  <symbol id="notification_off" viewBox="0 0 24 24">
    <path d="M20.5 18.69L8.34 6.14L5.77 3.49L4.5 4.76L7.3 7.56V7.57C6.78 8.56 6.5 9.73 6.5 10.99V15.99L4.5 17.99V18.99H18.23L20.23 20.99L21.5 19.72L20.5 18.69ZM12.5 22C13.61 22 14.5 21.11 14.5 20H10.5C10.5 21.11 11.39 22 12.5 22ZM18.5 14.68V11C18.5 7.92 16.86 5.36 14 4.68V4C14 3.17 13.33 2.5 12.5 2.5C11.67 2.5 11 3.17 11 4V4.68C10.85 4.71 10.71 4.76 10.58 4.8C10.48 4.83 10.38 4.87 10.28 4.91H10.27C10.26 4.91 10.26 4.91 10.25 4.92C10.02 5.01 9.79 5.12 9.57 5.23C9.57 5.23 9.56 5.23 9.56 5.24L18.5 14.68Z" fill="black" fill-opacity="0.6"/>
  </symbol>
</svg>
